{"title":"MILF Memoirs 3D(Anaglyph) DVDRip","uid":6287249,"size":1468192837,"categoryP":"porn","categoryS":"movies","magnet":"?xt=urn:btih:1ac2846e49ea8466db78c915efb6e7a8bd2b0548&amp;dn=MILF+Memoirs+3D%28Anaglyph%29+DVDRip&amp;tr=udp%3A%2F%2Ftracker.openbittorrent.com%3A80&amp;tr=udp%3A%2F%2Fopen.demonii.com%3A1337&amp;tr=udp%3A%2F%2Ftracker.coppersurfer.tk%3A6969&amp;tr=udp%3A%2F%2Fexodus.desync.com%3A6969","seeders":1,"leechers":4,"uploader":"Carl_McFondleberg","files":-1,"time":1301658292,"description":"SCREENSHOTS:\n &lt;a href=&quot;\nhttp://lnk.co/GPGK9&quot; rel=&quot;nofollow&quot; target=&quot;_NEW&quot;&gt;\nhttp://lnk.co/GPGK9&lt;/a&gt;\n &lt;a href=&quot;\nhttp://lnk.co/GPGLA&quot; rel=&quot;nofollow&quot; target=&quot;_NEW&quot;&gt;\nhttp://lnk.co/GPGLA&lt;/a&gt;\n &lt;a href=&quot;\nhttp://lnk.co/GPGLB&quot; rel=&quot;nofollow&quot; target=&quot;_NEW&quot;&gt;\nhttp://lnk.co/GPGLB&lt;/a&gt;\n\nVideo\nID                               : 0\nFormat                           : MPEG-4 Visual\nFormat profile                   : Advanced Simple@L5\nFormat settings, BVOP            : 2\nFormat settings, QPel            : No\nFormat settings, GMC             : No warppoints\nFormat settings, Matrix          : Default (H.263)\nCodec ID                         : XVID\nCodec ID/Hint                    : XviD\nDuration                         : 3h 5mn\nBit rate                         : 924 Kbps\nWidth                            : 640 pixels\nHeight                           : 352 pixels\nDisplay aspect ratio             : 16:9\nFrame rate                       : 29.970 fps\nColor space                      : YUV\nChroma subsampling               : 4:2:0\nBit depth                        : 8 bits\nScan type                        : Progressive\nCompression mode                 : Lossy\nBits/(Pixel*Frame)               : 0.137\nStream size                      : 1.20 GiB (87%)\n\nAudio\nID                               : 1\nFormat                           : MPEG Audio\nFormat version                   : Version 1\nFormat profile                   : Layer 3\nMode                             : Joint stereo\nMode extension                   : MS Stereo\nCodec ID                         : 55\nCodec ID/Hint                    : MP3\nDuration                         : 3h 5mn\nBit rate mode                    : Variable\nBit rate                         : 118 Kbps\nChannel(s)                       : 2 channels\nSampling rate                    : 48.0 KHz\nCompression mode                 : Lossy\nStream size                      : 157 MiB (11%)\nLanguage                         : English\n","torrent":{"xt":"urn:btih:1ac2846e49ea8466db78c915efb6e7a8bd2b0548","amp;dn":"MILF+Memoirs+3D%28Anaglyph%29+DVDRip","amp;tr":["udp%3A%2F%2Ftracker.openbittorrent.com%3A80","udp%3A%2F%2Fopen.demonii.com%3A1337","udp%3A%2F%2Ftracker.coppersurfer.tk%3A6969","udp%3A%2F%2Fexodus.desync.com%3A6969"],"infoHash":"1ac2846e49ea8466db78c915efb6e7a8bd2b0548","infoHashBuffer":{"type":"Buffer","data":[26,194,132,110,73,234,132,102,219,120,201,21,239,182,231,168,189,43,5,72]},"announce":[],"urlList":[]}}